<?xml version="1.0" encoding="utf-8"?>
<!-- Generator: Adobe Illustrator 15.0.0, SVG Export Plug-In . SVG Version: 6.00 Build 0)  -->
<!DOCTYPE svg PUBLIC "-//W3C//DTD SVG 1.1//EN" "http://www.w3.org/Graphics/SVG/1.1/DTD/svg11.dtd">
<svg version="1.1" id="Layer_1" xmlns="http://www.w3.org/2000/svg" xmlns:xlink="http://www.w3.org/1999/xlink" x="0px" y="0px"
	 width="32px" height="32px" viewBox="27.786 34 32 32" enable-background="new 27.786 34 32 32" xml:space="preserve">
<path id="path2299" d="M43.788,34.426c-1.989,0-3.605,1.561-3.605,3.487c0,1.418,0.877,2.641,2.132,3.187l-0.037,1.807h-9.677v1.911
	h9.634l-0.292,13.852c-0.005,0.279,0.002,3.094-3.864,1.149c-3.877-1.952-1.687-4.162-1.426-4.228
	c-2.278-0.701-4.343-2.651-6.011-4.655c-1.636,3.57,1.294,7.379,1.436,7.923c0.352-0.378,0.878-0.316,1.2-0.264
	c3.947,6.017,9.122,5.297,10.51,6.979c1.389-1.683,6.558-0.963,10.506-6.979c0.321-0.053,0.848-0.114,1.199,0.264
	c0.142-0.543,3.073-4.353,1.436-7.923c-1.669,2.004-3.732,3.954-6.01,4.655c0.26,0.065,2.45,2.275-1.426,4.228
	c-3.867,1.944-3.858-0.869-3.864-1.149l-0.292-13.852h9.635v-1.911h-9.678L45.257,41.1c1.255-0.546,2.132-1.769,2.132-3.187
	C47.388,35.986,45.778,34.426,43.788,34.426z M43.788,36.638c0.706,0,1.276,0.571,1.276,1.275c0,0.705-0.57,1.276-1.276,1.276
	c-0.704,0-1.28-0.571-1.28-1.276C42.509,37.209,43.084,36.638,43.788,36.638z"/>
</svg>
