<?xml version="1.0" encoding="utf-8"?>
<!-- Generator: Adobe Illustrator 15.0.0, SVG Export Plug-In . SVG Version: 6.00 Build 0)  -->
<!DOCTYPE svg PUBLIC "-//W3C//DTD SVG 1.1//EN" "http://www.w3.org/Graphics/SVG/1.1/DTD/svg11.dtd">
<svg version="1.1" id="Layer_1" xmlns="http://www.w3.org/2000/svg" xmlns:xlink="http://www.w3.org/1999/xlink" x="0px" y="0px"
	 width="32px" height="32px" viewBox="0 0 32 32" enable-background="new 0 0 32 32" xml:space="preserve">
<g id="レイヤー_3" display="none">
	<path display="inline" d="M61.549,4.018c1.271,0,2.303,1.145,2.303,2.557c0,0-24.984,15.756-24.983,43.704
		C38.865,77.986,63.85,93.982,63.85,93.982c0.002,1.414-1.026,2.559-2.299,2.559l0,0c-1.271,0-25.584-18.555-25.583-46.262
		C35.966,22.331,60.279,4.018,61.549,4.018L61.549,4.018z"/>
	<rect x="61.193" y="6.493" display="inline" width="1.244" height="87.394"/>
</g>
<g id="レイヤー_1" display="none">
	<rect x="60.5" y="6.762" display="inline" width="3.5" height="87.396"/>
	<path display="inline" d="M61.588,97.941c-2.367,0-27.92-20.541-27.92-47.771c0-27.771,25.553-47.771,27.92-47.771l0,0
		c2.369,0,4.289,1.962,4.289,4.382c0,0-25.633,15.492-25.633,43.639c0,26.854,25.633,43.139,25.633,43.139
		C65.877,95.98,63.957,97.941,61.588,97.941L61.588,97.941z"/>
</g>
<g id="レイヤー_4" display="none">
	<path display="inline" d="M75.99,32.014c0,17.463-16.975,35.42-26.028,35.42c-9.053,0-26.026-18.105-26.026-35.42
		c0-15.438,11.651-27.952,26.026-27.952S75.99,16.577,75.99,32.014z"/>
	<g display="inline">
		<path d="M51.123,66.396c-0.934-0.582-1.525-0.174-1.314,0.903l1.971,10.109c0.212,1.079,1.078,1.391,1.927,0.688l5.426-4.473
			c0.849-0.7,0.779-1.749-0.153-2.331L51.123,66.396z"/>
	</g>
	<path display="inline" d="M37.418,96.938c-0.521,0-1.029-0.271-1.305-0.758c-0.41-0.72-0.158-1.636,0.562-2.046
		c5.019-2.856,4.865-5.358,4.56-10.344c-0.076-1.263-0.164-2.694-0.164-4.258c0-8.365,7.783-13.181,8.115-13.382
		c0.709-0.426,1.631-0.202,2.06,0.507c0.43,0.708,0.204,1.629-0.503,2.059c-0.107,0.066-6.672,4.183-6.672,10.816
		c0,1.472,0.08,2.795,0.16,4.075c0.319,5.226,0.572,9.353-6.07,13.134C37.924,96.874,37.669,96.938,37.418,96.938L37.418,96.938z"/>
</g>
<g id="レイヤー_2">
	<path d="M24.67,9.843c0-5.145-3.883-9.312-8.67-9.312c-4.789,0-8.67,4.169-8.67,9.312c0,5.336,4.84,10.896,7.953,11.697
		c-0.773,0.605-2.246,2.033-2.246,4.131c0,0.523,0.029,1,0.055,1.42c0.103,1.66,0.152,2.494-1.519,3.447
		c-0.24,0.135-0.323,0.439-0.188,0.68c0.094,0.162,0.262,0.252,0.437,0.252c0.083,0,0.168-0.02,0.247-0.063
		c2.213-1.26,2.129-2.635,2.021-4.377c-0.025-0.426-0.053-0.867-0.053-1.354c0-1.826,1.492-3.078,2.029-3.472l0.084,0.427
		c0.07,0.358,0.184,0.948,0.255,1.307l0.2,1.031c0.07,0.358,0.357,0.463,0.641,0.229l0.393-0.32
		c0.281-0.232,0.744-0.613,1.027-0.848l0.389-0.32c0.283-0.234,0.262-0.582-0.051-0.777l-0.742-0.465
		c-0.312-0.192-0.82-0.51-1.133-0.703L16.76,21.53C19.873,20.696,24.67,15.2,24.67,9.843z"/>
</g>
</svg>
