<?xml version="1.0" encoding="utf-8"?>
<!-- Generator: Adobe Illustrator 15.0.0, SVG Export Plug-In . SVG Version: 6.00 Build 0)  -->
<!DOCTYPE svg PUBLIC "-//W3C//DTD SVG 1.1//EN" "http://www.w3.org/Graphics/SVG/1.1/DTD/svg11.dtd">
<svg version="1.1" id="Layer_1" xmlns="http://www.w3.org/2000/svg" xmlns:xlink="http://www.w3.org/1999/xlink" x="0px" y="0px"
	 width="32px" height="32px" viewBox="34 3.225 32 32" enable-background="new 34 3.225 32 32" xml:space="preserve">
<path d="M34.947,29.508c0.104,0.603,0.227,1.119,0.447,1.17h1.311c0.002-6.597,8.512-6.378,8.584,0.006l9.293-0.005
	c-0.209-5.979,8.625-6.779,8.75,0.005l1.262-0.006c0.137-0.169,0.259-0.008,0.439-1.225l0.018-7.577
	c-0.094-0.688-0.209-0.949-0.324-1.217l-8.307-3.657l-3.799-10.09c-0.125-0.383-0.268-0.712-0.531-0.668H40.727l-5.648,11.887
	c-0.062,0.351-0.094,0.618-0.111,0.844L34.947,29.508z M45.921,7.523h5.034c0.11-0.045,0.16,0.159,0.225,0.309l2.83,7.613
	c0.125,0.595,0.084,1.086-0.215,1.404h-7.874V7.523z M38.227,14.549l2.834-6.749c0.064-0.151,0.113-0.358,0.225-0.312h3.609
	l-0.043,9.445h-6.549C37.961,16.748,38.002,15.477,38.227,14.549z"/>
<path d="M37.229,30.35c0,2.022,1.64,3.662,3.662,3.662c2.021,0,3.661-1.64,3.661-3.662c0-2.023-1.64-3.661-3.661-3.661
	C38.868,26.688,37.229,28.326,37.229,30.35z M39.345,30.342c0-0.853,0.692-1.545,1.546-1.545c0.853,0,1.545,0.692,1.545,1.545
	c0,0.854-0.692,1.547-1.545,1.547C40.037,31.889,39.345,31.195,39.345,30.342z"/>
<path d="M55.354,30.35c0,2.022,1.64,3.662,3.662,3.662c2.021,0,3.661-1.64,3.661-3.662c0-2.023-1.64-3.661-3.661-3.661
	C56.993,26.688,55.354,28.326,55.354,30.35z M57.47,30.342c0-0.853,0.692-1.545,1.546-1.545c0.853,0,1.545,0.692,1.545,1.545
	c0,0.854-0.692,1.547-1.545,1.547C58.162,31.889,57.47,31.195,57.47,30.342z"/>
</svg>
