<?xml version="1.0" encoding="utf-8"?>
<!-- Generator: Adobe Illustrator 15.0.0, SVG Export Plug-In . SVG Version: 6.00 Build 0)  -->
<!DOCTYPE svg PUBLIC "-//W3C//DTD SVG 1.1//EN" "http://www.w3.org/Graphics/SVG/1.1/DTD/svg11.dtd">
<svg version="1.1" id="Layer_1" xmlns="http://www.w3.org/2000/svg" xmlns:xlink="http://www.w3.org/1999/xlink" x="0px" y="0px"
	 width="32px" height="32px" viewBox="34 34 32 32" enable-background="new 34 34 32 32" xml:space="preserve">
<path d="M45.924,45.153c0-1.732,1.217-3.141,2.712-3.141c1.115,0,2.134,0.809,2.534,2.014c0.021,0.062,0.08,0.105,0.146,0.105
	c0.066,0,0.125-0.043,0.146-0.105c0.401-1.204,1.419-2.014,2.533-2.014c1.496,0,2.714,1.408,2.714,3.141
	c0,1.73-1.218,3.141-2.714,3.141c-1.113,0-2.132-0.811-2.533-2.017c-0.021-0.062-0.079-0.105-0.146-0.105
	c-0.065,0-0.126,0.042-0.146,0.105c-0.401,1.206-1.42,2.017-2.534,2.017C47.141,48.293,45.924,46.883,45.924,45.153z"/>
<path id="path2389" fill="#FFFFFF" d="M48.066,45.153c0,0.688,0.556,1.247,1.242,1.247c0.686,0,1.241-0.558,1.241-1.247l0,0
	c0-0.688-0.556-1.247-1.241-1.247C48.622,43.906,48.066,44.464,48.066,45.153z"/>
<path id="path2396" fill="#FFFFFF" d="M52.006,45.153c0,0.688,0.557,1.247,1.242,1.247s1.241-0.558,1.241-1.247l0,0
	c0-0.688-0.556-1.247-1.241-1.247S52.006,44.464,52.006,45.153z"/>
<path d="M35.687,60.559c0,0.721,0.746,0.859,2.124,0.859c0.126,0,0.253-0.002,0.381-0.002c0.131-0.002,0.262-0.002,0.394-0.002
	c0.809,0,1.721,0.029,2.321,0.375c0.654,0.379,0.908,0.844,1.154,1.295c0.312,0.572,0.604,1.111,1.704,1.537
	c0.125,0.049,0.255,0.072,0.397,0.072c0.614,0,1.336-0.447,2.099-0.924c0.931-0.58,1.894-1.18,2.916-1.18
	c0.714,0,1.641,0.385,2.622,0.795c0.982,0.408,1.996,0.83,2.76,0.83c0.236,0,0.434-0.039,0.6-0.121
	c0.543-0.268,0.848-0.803,1.169-1.369c0.462-0.814,0.985-1.736,2.339-1.875c0.062-0.006,0.131-0.01,0.201-0.01
	c0.634,0,1.537,0.262,2.41,0.514c0.855,0.248,1.741,0.504,2.338,0.504c0.238,0,0.416-0.041,0.529-0.123s0.169-0.213,0.169-0.402
	c0-0.746-0.312-1.545-0.704-2.559c-0.739-1.902-1.856-4.775-1.856-9.898c0-7.482-5.229-13.569-11.655-13.569
	c-6.427,0-11.655,6.087-11.655,13.569c0,4.066-0.985,6.343-1.776,8.175C36.142,58.266,35.688,59.312,35.687,60.559z M36.854,59.697
	c0.001-1.143,0.418-2.105,0.899-3.221c0.727-1.684,1.632-3.775,1.632-7.509c0-6.871,4.802-12.463,10.705-12.463
	c5.902,0,10.705,5.592,10.705,12.463c0,4.704,1.026,7.343,1.705,9.091c0.36,0.932,0.646,1.664,0.646,2.35
	c0,0.174-0.051,0.295-0.155,0.369c-0.104,0.076-0.267,0.113-0.485,0.113c-0.549,0-1.362-0.234-2.148-0.463
	c-0.802-0.23-1.631-0.471-2.214-0.471c-0.064,0-0.127,0.004-0.184,0.008c-1.244,0.129-1.725,0.975-2.148,1.723
	c-0.296,0.52-0.574,1.012-1.074,1.258c-0.152,0.074-0.333,0.111-0.551,0.111c-0.701,0-1.633-0.389-2.534-0.762
	c-0.901-0.377-1.753-0.73-2.408-0.73c-0.939,0-1.824,0.551-2.679,1.082c-0.7,0.439-1.363,0.85-1.928,0.85
	c-0.131,0-0.25-0.021-0.364-0.066c-1.011-0.391-1.279-0.887-1.565-1.412c-0.227-0.414-0.459-0.842-1.061-1.189
	c-0.552-0.316-1.39-0.344-2.132-0.344c-0.121,0-0.241,0-0.361,0.002c-0.117,0-0.234,0.002-0.35,0.002
	C37.539,60.488,36.854,60.359,36.854,59.697z"/>
</svg>
