<?xml version="1.0" encoding="utf-8"?>
<!-- Generator: Adobe Illustrator 15.0.0, SVG Export Plug-In . SVG Version: 6.00 Build 0)  -->
<!DOCTYPE svg PUBLIC "-//W3C//DTD SVG 1.1//EN" "http://www.w3.org/Graphics/SVG/1.1/DTD/svg11.dtd">
<svg version="1.1" xmlns="http://www.w3.org/2000/svg" xmlns:xlink="http://www.w3.org/1999/xlink" x="0px" y="0px" width="32px"
	 height="32px" viewBox="30.744 34 32 32" enable-background="new 30.744 34 32 32" xml:space="preserve">
<g id="Layer_1">
</g>
<g id="Layer_2">
</g>
<g id="Layer_3">
	<path d="M51.512,53.76c-0.615-11.971-2.2-17.508-4.071-18.388c-0.013-0.253-0.021-0.405-0.021-0.413c0-0.057,0-0.09,0-0.088
		c0-0.04,0-0.089,0-0.168h-1.348l-0.012,0.67c-1.87,0.882-3.454,6.419-4.069,18.387c-0.108,3.756,0.14,5.539,0.519,4.664
		c0.394-1.01,0.825-1.211,1.031-1.211s0.123,0.467,0.484,1.605c0.412,1.199,0.888,1.176,1.266-0.037
		c0.29-1.131,0.442-1.333,0.704-1.393c0,1.731,0.001,3.007,0.001,3.457c0,1.58-1.091,3.139-2.436,3.139
		c-1.347,0-2.438-1.093-2.438-2.672h-1.352c0,2.457,1.695,3.984,3.789,3.984c2.092,0,3.789-1.994,3.789-4.451
		c0-0.552-0.001-1.815-0.003-3.484c0.372,0.039,0.521,0.076,0.866,1.42c0.378,1.213,0.854,1.236,1.266,0.037
		c0.361-1.139,0.278-1.605,0.484-1.605s0.638,0.201,1.031,1.211C51.373,59.299,51.621,57.516,51.512,53.76z"/>
	<path d="M50.652,56.961"/>
	<path d="M49.431,58.875"/>
</g>
</svg>
