<?xml version="1.0" encoding="utf-8"?>
<!-- Generator: Adobe Illustrator 15.0.0, SVG Export Plug-In . SVG Version: 6.00 Build 0)  -->
<!DOCTYPE svg PUBLIC "-//W3C//DTD SVG 1.1//EN" "http://www.w3.org/Graphics/SVG/1.1/DTD/svg11.dtd">
<svg version="1.1" id="Calque_1" xmlns="http://www.w3.org/2000/svg" xmlns:xlink="http://www.w3.org/1999/xlink" x="0px" y="0px"
	 width="32px" height="32px" viewBox="34 34 32 32" enable-background="new 34 34 32 32" xml:space="preserve">
<path d="M49.999,34.417c-8.605,0-15.582,6.977-15.582,15.583c0,8.605,6.977,15.582,15.582,15.582S65.582,58.605,65.582,50
	C65.582,41.394,58.604,34.417,49.999,34.417z M44.764,63.837c-4.61-1.746-8.118-5.728-9.203-10.623
	c1.199,0.791,6.449,3.489,19.227,0.733c0.3,1.071,1.095,1.92,2.111,2.253C54.441,64.646,48.011,64.509,44.764,63.837z
	 M57.858,49.665c-0.698,0-1.343,0.237-1.87,0.634C54.07,48.02,46.966,39.98,40.964,38.291c2.499-1.932,5.632-3.084,9.035-3.084
	c3.327,0,6.396,1.099,8.868,2.953c2.811,3.882,0.243,11.674,0.214,11.76C58.705,49.756,58.292,49.665,57.858,49.665z M59.854,55.623
	c0.734-0.613,1.206-1.555,1.206-2.613c0-0.344-0.049-0.675-0.142-0.987c1.277-0.497,3.26-1.563,3.871-1.897
	c-0.023,2.956-0.915,5.703-2.431,8.002C60.734,58.467,60.077,56.569,59.854,55.623z"/>
</svg>
