<?xml version="1.0" encoding="utf-8"?>
<!-- Generator: Adobe Illustrator 15.0.0, SVG Export Plug-In . SVG Version: 6.00 Build 0)  -->
<!DOCTYPE svg PUBLIC "-//W3C//DTD SVG 1.1//EN" "http://www.w3.org/Graphics/SVG/1.1/DTD/svg11.dtd">
<svg version="1.1" id="Layer_1" xmlns="http://www.w3.org/2000/svg" xmlns:xlink="http://www.w3.org/1999/xlink" x="0px" y="0px"
	 width="32px" height="32px" viewBox="34 34 32 32" enable-background="new 34 34 32 32" xml:space="preserve">
<g>
	<path d="M42.23,55.95V45.14c0-0.551-0.451-0.984-1.003-0.959l-5.664,0.248c-0.552,0.023-1.002,0.495-1.002,1.047v10.141
		c0,0.553,0.451,1.014,1.003,1.025l5.663,0.291C41.778,56.944,42.23,56.502,42.23,55.95z M38.944,56.014
		c-1.06-0.055-2.063-0.222-2.063-0.222s1.561-0.141,2.537-0.253c0.977-0.111,1.311-0.695,1.422-2.731
		c0.206-3.765,0.447-6.497,0.447-6.497s0,6.748,0,8.199C41.287,55.959,40.003,56.07,38.944,56.014z"/>
	<path d="M42.69,56.573c-0.058,1.135,12.136,5.104,19.123,1.701c6.987-3.401,2.019-13.668,0.382-15.422
		c-1.011-1.083-3.476-1.527-6.975-1.173c-4.188,0.45-5.527,0.672-5.527,0.672s2.182-0.869,5.178-1.082l0.154-0.013
		c-1.654-2.891-8.991-2.757-12.109,2.563c0,0-0.227,0.404-0.227,0.876S42.69,56.573,42.69,56.573z M64.331,53.729
		c-0.612,2.671-4.115,4.287-7.899,4.736c0.46-0.06,9.502-1.38,6.784-11.652C63.216,46.812,64.945,51.052,64.331,53.729z"/>
</g>
</svg>
